<svg xmlns="http://www.w3.org/2000/svg" width="1200" height="800" viewBox="0 0 1200 800" role="img" aria-label="City activity image">
  <defs>
    <linearGradient id="city-sky" x1="0" y1="0" x2="0" y2="1">
      <stop offset="0%" stop-color="#1f2a44"/>
      <stop offset="100%" stop-color="#394e78"/>
    </linearGradient>
  </defs>
  <rect width="1200" height="800" fill="url(#city-sky)"/>
  <circle cx="930" cy="120" r="48" fill="#f5f0b2"/>
  <rect x="110" y="340" width="120" height="360" fill="#15233a"/>
  <rect x="250" y="290" width="180" height="410" fill="#1b304f"/>
  <rect x="460" y="250" width="140" height="450" fill="#162842"/>
  <rect x="630" y="320" width="220" height="380" fill="#1e3557"/>
  <rect x="880" y="280" width="170" height="420" fill="#182b45"/>
  <g fill="#f7d77f" opacity="0.9">
    <rect x="275" y="320" width="18" height="18"/>
    <rect x="309" y="320" width="18" height="18"/>
    <rect x="343" y="320" width="18" height="18"/>
    <rect x="275" y="356" width="18" height="18"/>
    <rect x="309" y="356" width="18" height="18"/>
    <rect x="343" y="356" width="18" height="18"/>
    <rect x="915" y="315" width="18" height="18"/>
    <rect x="949" y="315" width="18" height="18"/>
    <rect x="983" y="315" width="18" height="18"/>
    <rect x="915" y="351" width="18" height="18"/>
    <rect x="949" y="351" width="18" height="18"/>
    <rect x="983" y="351" width="18" height="18"/>
  </g>
  <rect x="0" y="700" width="1200" height="100" fill="#0e1a2d"/>
  <text x="70" y="105" font-family="Arial, sans-serif" font-size="52" font-weight="700" fill="#f3f4f6">Trevtha City Discovery</text>
</svg>
